<?xml version="1.0" encoding="UTF-8"?>
<svg id="svg19" xmlns="http://www.w3.org/2000/svg" xmlns:xlink="http://www.w3.org/1999/xlink" xmlns:svg="http://www.w3.org/2000/svg" xmlns:rdf="http://www.w3.org/1999/02/22-rdf-syntax-ns#" xmlns:dc="http://purl.org/dc/elements/1.1/" xmlns:cc="http://creativecommons.org/ns#" version="1.1" viewBox="0 0 36 36">
  <defs>
    <style>
      .cls-1 {
        fill: url(#linear-gradient);
      }

      .cls-1, .cls-2 {
        fill-rule: evenodd;
        stroke-width: 0px;
      }

      .cls-2 {
        fill: #fff;
      }
    </style>
    <linearGradient id="linear-gradient" x1="18" y1="38" x2="18" y2="2" gradientTransform="translate(0 38) scale(1 -1)" gradientUnits="userSpaceOnUse">
      <stop offset="0" stop-color="#fb6361"/>
      <stop offset="1" stop-color="#ed3e45"/>
    </linearGradient>
  </defs>
  <g id="ic_ag" data-name="ic ag">
    <g id="_编组" data-name="编组">
      <path id="Fill-1" class="cls-1" d="M10.1,0C2.7,0,0,2.7,0,10.1v15.8c0,7.4,2.7,10.1,10.1,10.1h15.8c7.4,0,10.1-2.7,10.1-10.1v-15.8c0-7.4-2.7-10.1-10.1-10.1h-15.8Z"/>
      <path id="path14" class="cls-2" d="M15.7,20.9h1.4l-.7-1.7-.7,1.7ZM15.3,21.7l-.4,1h-1l2.1-4.7h.8l2.1,4.7h-1l-.4-1h-2.2ZM31.1,22.7h.9v-4.7h-.9v4.7ZM27.3,20.7h1.7v-.9h-1.7v-1h2.5v-.9h-3.5v4.7h3.6v-.9h-2.6v-1.2ZM23.6,21.2l-1.1-3.2h-.8l-1.1,3.2-1-3.2h-1l1.6,4.7h.8l1.1-3.1,1.1,3.1h.8l1.6-4.7h-1l-1,3.2ZM12.5,20.7c0,.8-.4,1.2-1.1,1.2s-1.1-.4-1.1-1.2v-2.7h-1v2.7c0,1.3.7,2.1,2,2.1s2-.8,2-2.1v-2.7h-1v2.7ZM7.1,18h1v4.7h-1v-1.9h-2.2v1.9h-1v-4.7h1v1.9h2.2v-1.9Z"/>
      <path id="Fill-3" class="cls-2" d="M18,12c-3.3,0-6-2.7-6-6h.8c0,2.8,2.3,5.2,5.2,5.2s5.2-2.3,5.2-5.2h.8c0,3.3-2.7,6-6,6"/>
    </g>
  </g>
</svg>